<svg xmlns="http://www.w3.org/2000/svg" xmlns:xlink="http://www.w3.org/1999/xlink" x="0" y="0" viewBox="0 0 443.934 443"
  xml:space="preserve">
  <g>
    <path
      d="M356.758 65.781 371.93 50.61l21.86 21.86-15.173 15.172zM381.832 40.71l15.172-15.17 21.86 21.855-15.177 15.175zM406.902 15.64 422.074.47l21.86 21.855L428.762 37.5zM309.55 154.93l-20.077-20.078-48.086 68.164zM331.688 90.855l15.175-15.171 21.856 21.859-15.172 15.172zm0 0"
      fill="#ffffff"></path>
    <path
      d="M40.078 436.078c11.121 11.098 29.125 11.098 40.246 0l255.188-255.183-15.914-15.918-103.258 72.84a7.001 7.001 0 0 1-9.754-9.758l72.84-103.254-15.918-15.914L8.32 364.078C-2.773 375.2-2.773 393.2 8.32 404.32zM306.617 115.93l15.172-15.172 21.86 21.86-15.172 15.171zm0 0"
      fill="#ffffff"></path>
  </g>
</svg>